HIERARCHY
ROOT root
{
	OFFSET	0	13.1	24.9
	CHANNELS 6  Xposition Yposition Zposition Xrotation Yrotation Zrotation
	JOINT spine_1
	{
		OFFSET	0	9.99999	0
		CHANNELS 3  Xrotation Yrotation Zrotation
		JOINT spine_2
		{
			OFFSET	0	112	-10
			CHANNELS 3  Xrotation Yrotation Zrotation
			JOINT spine_3
			{
				OFFSET	0	206.5	19.3
				CHANNELS 3  Xrotation Yrotation Zrotation
				JOINT spine_4
				{
					OFFSET	0	110.4	14.6
					CHANNELS 3  Xrotation Yrotation Zrotation
					JOINT neck_1
					{
						OFFSET	0	71.8	-50.3
						CHANNELS 3  Xrotation Yrotation Zrotation
						JOINT neck_2
						{
							OFFSET	0	86.2	-25.8
							CHANNELS 3  Xrotation Yrotation Zrotation
							JOINT head_ee
							{
								OFFSET	0	179.8	-8.7
								CHANNELS 3  Xrotation Yrotation Zrotation
								End Site
								{
									OFFSET	1	0	0
								}
							}
						}
					}
					JOINT left_clavicle
					{
						OFFSET	-43.2	22.4	-70.8
						CHANNELS 3  Xrotation Yrotation Zrotation
						JOINT left_shoulder
						{
							OFFSET	-93.9	-5.79999	48.7
							CHANNELS 3  Xrotation Yrotation Zrotation
							JOINT left_elbow
							{
								OFFSET	-291.4	-30.8	15.2
								CHANNELS 3  Xrotation Yrotation Zrotation
								JOINT left_lowarm_twist
								{
									OFFSET	-110.7	-3.89999	13.6
									CHANNELS 3  Xrotation Yrotation Zrotation
									JOINT left_hand
									{
										OFFSET	-110.7	-3.89999	13.6
										CHANNELS 3  Xrotation Yrotation Zrotation
										JOINT left_ee
										{
											OFFSET	-80.8	-5.10001	12.1
											CHANNELS 3  Xrotation Yrotation Zrotation
											End Site
											{
												OFFSET	1	0	0
											}
										}
									}
								}
							}
						}
					}
					JOINT right_clavicle
					{
						OFFSET	43.2	22.4	-70.8
						CHANNELS 3  Xrotation Yrotation Zrotation
						JOINT right_shoulder
						{
							OFFSET	93.9	-5.79999	48.7
							CHANNELS 3  Xrotation Yrotation Zrotation
							JOINT right_elbow
							{
								OFFSET	291.4	-30.8	15.2
								CHANNELS 3  Xrotation Yrotation Zrotation
								JOINT right_lowarm_twist
								{
									OFFSET	110.7	-3.89999	13.6
									CHANNELS 3  Xrotation Yrotation Zrotation
									JOINT right_hand
									{
										OFFSET	110.7	-3.89999	13.6
										CHANNELS 3  Xrotation Yrotation Zrotation
										JOINT right_ee
										{
											OFFSET	80.8	-5.10001	12.1
											CHANNELS 3  Xrotation Yrotation Zrotation
											End Site
											{
												OFFSET	1	0	0
											}
										}
									}
								}
							}
						}
					}
				}
			}
		}
	}
	JOINT left_hip
	{
		OFFSET	-82.8	-127.5	0.300001
		CHANNELS 3  Xrotation Yrotation Zrotation
		JOINT left_knee
		{
			OFFSET	-28.2	-396.7	2.2
			CHANNELS 3  Xrotation Yrotation Zrotation
			JOINT left_ankle
			{
				OFFSET	-11.7	-411.3	35.4
				CHANNELS 3  Xrotation Yrotation Zrotation
				JOINT left_toes
				{
					OFFSET	0	-60	-88.6
					CHANNELS 3  Xrotation Yrotation Zrotation
					JOINT left_foot_ee
					{
						OFFSET	-22.5	-16.5	-42.2
						CHANNELS 3  Xrotation Yrotation Zrotation
						End Site
						{
							OFFSET	1	0	0
						}
					}
				}
			}
		}
	}
	JOINT right_hip
	{
		OFFSET	82.8	-127.5	0.300001
		CHANNELS 3  Xrotation Yrotation Zrotation
		JOINT right_knee
		{
			OFFSET	28.2	-396.7	2.2
			CHANNELS 3  Xrotation Yrotation Zrotation
			JOINT right_ankle
			{
				OFFSET	11.7	-411.3	35.4
				CHANNELS 3  Xrotation Yrotation Zrotation
				JOINT right_toes
				{
					OFFSET	0	-60	-88.6
					CHANNELS 3  Xrotation Yrotation Zrotation
					JOINT right_foot_ee
					{
						OFFSET	22.5	-16.5	-42.2
						CHANNELS 3  Xrotation Yrotation Zrotation
						End Site
						{
							OFFSET	1	0	0
						}
					}
				}
			}
		}
	}
}
MOTION
Frames: 16
Frame Time: 0.02
2552.1993399 769.425 -1586.00961161 4.95346516246 52.5164801818 -12.4565343199 -1.35871 0.985575 4.90512 -1.34558 0.671846 4.95771 -1.27486 -0.496421 4.97829 -1.30931 0.295026 4.99423 -4.18339 18.5934 -3.29661 -3.6464 36.5843 -0.472043 -0.0 0.0 -0.0 -0.536815 12.7343 0.613023 -18.8917 -11.6169 57.7944 1.39008 -34.5496 0.43231 -50.8813 -4.17542 4.7282 -1.79206 18.2619 -3.41845 -0.0 0.0 -0.0 12.567 22.6629 -25.0244 -4.70293 23.897 -65.1872 1.4396 35.492 -0.460731 36.4133 0.175968 4.57089 2.78955 -2.37437 -19.9222 0.0 0.0 0.0 2.92484 29.6958 -3.06748 -31.652 -0.0227471 4.79615 4.52904 3.1832 -0.657501 -13.2464 0.0 0.0 -0.0 0.0 -0.0 5.81539 32.7257 -1.01606 -14.2527 -0.319819 -2.15824 10.3129 1.07677 1.48229 -12.7234 0.0 0.0 0.0 0.0 0.0 
2525.70580193 766.548 -1569.47115784 6.1532318441 57.8765445477 -13.831272845 -1.11259 0.947444 4.59212 -1.1011 0.653639 4.64295 -1.03783 -0.421639 4.66968 -1.06811 0.32031 4.6777 -4.29135 18.6026 -3.21365 -3.7767 36.5552 -0.344653 -0.0 0.0 -0.0 -0.177807 12.6542 1.19882 -20.6865 -11.5251 59.6382 1.08782 -28.3183 0.274442 -50.1294 -4.08695 4.68965 -1.81237 17.2843 -4.00835 -0.0 0.0 -0.0 12.6941 23.1697 -25.271 -4.65635 24.26 -65.367 1.40356 34.8083 -0.439982 37.0439 0.204503 4.6463 2.67265 -2.01743 -18.9588 0.0 0.0 0.0 3.10162 31.4987 -4.12996 -25.3168 0.194772 3.84871 5.72179 0.996218 -0.83104 -16.5088 0.0 0.0 -0.0 0.0 -0.0 3.92364 32.261 -0.139952 -13.3343 -0.315489 -2.0174 9.97986 -3.5794 1.42266 -10.9213 0.0 0.0 0.0 0.0 0.0 
2503.5903014 766.77 -1548.64059799 7.32453265767 63.1106834851 -14.6687409474 -1.07981 0.950947 4.56593 -1.06846 0.658796 4.61703 -1.00527 -0.408036 4.64585 -1.03523 0.329994 4.65203 -4.32063 18.6247 -3.13772 -3.81406 36.544 -0.251246 -0.0 0.0 -0.0 -0.122805 12.7495 1.30148 -21.4031 -11.4514 60.2673 1.00262 -26.4117 0.235277 -49.9074 -4.06095 4.67805 -1.81439 17.0083 -4.15262 -0.0 0.0 -0.0 12.723 23.4493 -25.3109 -4.69914 24.4307 -65.252 1.39302 34.6061 -0.433978 37.236 0.213359 4.66921 2.6364 -1.90113 -18.6585 0.0 0.0 0.0 2.97365 31.9429 -4.69426 -23.2983 0.241911 3.54255 6.12565 0.395289 -0.889788 -17.4231 0.0 0.0 -0.0 0.0 -0.0 3.59077 31.9578 -1.00096 -13.0992 -0.314018 -1.98136 9.92996 -4.95625 1.41365 -10.401 0.0 0.0 0.0 0.0 0.0 
2486.47407916 773.03 -1526.76074663 10.2200601757 68.8215383274 -17.1320667218 -1.06733 0.950167 4.72523 -1.05515 0.647915 4.77596 -0.990461 -0.453646 4.79826 -1.02244 0.30894 4.80972 -3.59217 19.108 -2.38156 -2.98172 36.7551 0.350665 -0.0 0.0 -0.0 -0.64524 13.2884 0.506196 -23.8429 -11.3183 60.9443 0.931579 -24.7719 0.204586 -48.9743 -3.95207 4.62819 -1.55552 15.4176 -3.31131 -0.0 0.0 -0.0 12.7991 24.1479 -25.4169 -6.52573 25.9788 -66.1461 1.44461 35.586 -0.463639 38.4741 0.272284 4.81615 2.70509 -0.0152673 -18.4013 0.0 0.0 0.0 1.16891 31.654 -5.06185 -21.1702 0.279895 3.21822 8.19401 1.35162 -1.17971 -17.0264 0.0 0.0 -0.0 0.0 -0.0 3.1326 31.6222 -1.69537 -16.8428 -0.319866 -2.55561 13.753 -5.97795 1.92894 -9.69685 0.0 0.0 0.0 0.0 0.0 
2485.4048503 773.03 -1519.96960934 10.8210218106 70.0359915729 -17.7739209905 -1.06733 0.950167 4.72523 -1.05515 0.647915 4.77596 -0.990461 -0.453646 4.79826 -1.02244 0.30894 4.80972 -3.59217 19.108 -2.38156 -2.98172 36.7551 0.350665 -0.0 0.0 -0.0 -0.64524 13.2884 0.506196 -23.8429 -11.3183 60.9443 0.931579 -24.7719 0.204586 -48.9743 -3.95207 4.62819 -1.55552 15.4176 -3.31131 -0.0 0.0 -0.0 12.7991 24.1479 -25.4169 -6.52573 25.9788 -66.1461 1.44461 35.586 -0.463639 38.4741 0.272284 4.81615 2.70509 -0.0152673 -18.4013 0.0 0.0 0.0 1.16891 31.654 -5.06185 -21.1702 0.279895 3.21822 8.19401 1.35162 -1.17971 -17.0264 0.0 0.0 -0.0 0.0 -0.0 3.1326 31.6222 -1.69537 -16.8428 -0.319866 -2.55561 13.753 -5.97795 1.92894 -9.69685 0.0 0.0 0.0 0.0 0.0 
2476.38410073 769.544 -1514.1873521 13.4857306335 72.4835325436 -20.4760216875 -1.05127 0.875688 4.82284 -1.03851 0.567397 4.86864 -0.979496 -0.552518 4.87035 -1.01251 0.222644 4.89646 -3.07666 19.4234 -1.91165 -2.38903 36.8889 0.705544 -0.0 0.0 -0.0 -1.00959 13.1997 -0.106099 -24.9044 -11.4541 60.9961 0.931034 -24.7591 0.204357 -48.4538 -3.89169 4.5996 -1.36935 14.4048 -2.62257 -0.0 0.0 -0.0 12.818 24.3464 -25.4399 -7.23323 26.9393 -66.3823 1.48814 36.3946 -0.489222 39.2784 0.312265 4.91092 2.76742 1.25122 -18.3322 0.0 0.0 0.0 -0.878646 31.4691 -4.72456 -20.7746 0.285625 3.1578 9.52934 2.26619 -1.36331 -16.3001 0.0 0.0 -0.0 0.0 -0.0 3.21201 31.541 -1.9689 -19.4839 -0.301422 -2.96038 16.4515 -5.97984 2.28223 -9.45833 0.0 0.0 0.0 0.0 0.0 
2464.03299723 772.791 -1498.99732411 15.4931284677 74.5148984281 -22.544068383 -1.03636 0.705903 4.84664 -1.02339 0.396445 4.88162 -0.97925 -0.722545 4.84419 -1.01198 0.05062 4.89739 -2.53786 19.1819 -2.62615 -1.73406 36.8942 -0.274038 -0.0 0.0 -0.0 -0.914085 13.1296 0.0416737 -25.242 -12.1497 62.1172 0.896964 -23.9567 0.190305 -48.0742 -3.84783 4.57841 -1.18175 13.8388 -1.70836 -0.0 0.0 -0.0 12.6091 24.3983 -24.9523 -8.26232 27.3705 -66.0314 1.48418 36.3218 -0.486877 39.5664 0.326901 4.94471 2.70308 2.14295 -17.514 0.0 0.0 0.0 -2.31977 31.366 -4.35767 -20.4914 0.289472 3.11451 10.4679 2.90345 -1.49106 -15.792 0.0 0.0 -0.0 0.0 -0.0 3.29331 31.7699 -2.19652 -21.2799 -0.278231 -3.23497 18.3016 -6.03019 2.51857 -9.30638 0.0 0.0 0.0 0.0 0.0 
2464.0268074 772.791 -1498.91452326 15.5067175598 74.528467623 -22.5581688785 -1.03636 0.705903 4.84664 -1.02339 0.396445 4.88162 -0.97925 -0.722545 4.84419 -1.01198 0.05062 4.89739 -2.53786 19.1819 -2.62615 -1.73406 36.8942 -0.274038 -0.0 0.0 -0.0 -0.914085 13.1296 0.0416737 -25.242 -12.1497 62.1172 0.896964 -23.9567 0.190305 -48.0742 -3.84783 4.57841 -1.18175 13.8388 -1.70836 -0.0 0.0 -0.0 12.6091 24.3983 -24.9523 -8.26232 27.3705 -66.0314 1.48418 36.3218 -0.486877 39.5664 0.326901 4.94471 2.70308 2.14295 -17.514 0.0 0.0 0.0 -2.31977 31.366 -4.35767 -20.4914 0.289472 3.11451 10.4679 2.90345 -1.49106 -15.792 0.0 0.0 -0.0 0.0 -0.0 3.29331 31.7699 -2.19652 -21.2799 -0.278231 -3.23497 18.3016 -6.03019 2.51857 -9.30638 0.0 0.0 0.0 0.0 0.0 
2456.53558422 758.71 -1492.08991518 16.9164797872 74.4636642108 -23.2267698377 -1.14841 0.633032 4.63322 -1.13654 0.337254 4.66402 -1.09937 -0.740501 4.61729 -1.12911 -0.00282162 4.67617 -2.18577 18.3069 -4.593 -1.24026 36.7497 -2.61425 -0.0 0.0 -0.0 -1.16346 13.2115 -0.358183 -26.1667 -12.3216 63.0964 0.892928 -23.861 0.188669 -47.6663 -3.80084 4.55531 -0.78146 12.2776 0.119723 -0.0 0.0 -0.0 12.566 24.9262 -24.7972 -8.69929 27.7823 -65.6027 1.49714 36.5597 -0.494572 39.6982 0.333656 4.96015 2.66076 3.16924 -16.7922 0.0 0.0 0.0 -2.79643 31.4885 -4.20504 -20.0598 0.294924 3.04851 13.4448 4.48712 -1.89005 -15.7219 0.0 0.0 -0.0 0.0 -0.0 2.91769 32.1439 -2.32201 -22.1982 -0.263052 -3.37506 17.7525 -7.14072 2.44832 -8.06719 0.0 0.0 0.0 0.0 0.0 
2455.81388315 764.591 -1495.64948741 14.3753815338 72.1113535726 -20.3366682529 -1.16342 0.585709 4.50976 -1.15216 0.297856 4.53781 -1.11941 -0.751528 4.48516 -1.14747 -0.034512 4.54743 -2.07452 17.6362 -6.14186 -1.02209 36.7071 -4.41079 -0.0 0.0 -0.0 -1.02983 13.2709 -0.129412 -25.8306 -12.5463 64.0698 0.883285 -23.6317 0.184786 -47.1989 -3.74722 4.52844 -0.501831 11.6129 1.6058 -0.0 0.0 -0.0 12.4837 25.2875 -24.5685 -9.12261 28.0194 -64.9924 1.50609 36.7231 -0.499911 39.765 0.337096 4.96798 2.64094 4.12391 -16.254 0.0 0.0 0.0 -3.06423 31.5693 -4.14252 -19.741 0.298631 2.99973 15.5364 5.7518 -2.16375 -15.8087 0.0 0.0 -0.0 0.0 -0.0 3.13715 33.0257 -2.72167 -22.9468 -0.249015 -3.48908 15.7486 -8.32775 2.19064 -7.20214 0.0 0.0 0.0 0.0 0.0 
2456.01373878 774.61 -1498.0007928 13.1263914462 68.3414648379 -18.2767134005 -1.42402 0.721846 4.42223 -1.41325 0.439272 4.4591 -1.36908 -0.614735 4.43835 -1.39654 0.0932056 4.47967 -2.5938 17.4449 -6.64679 -1.59603 36.8052 -4.78791 -0.0 0.0 -0.0 -0.908395 13.3412 0.0803543 -25.5137 -12.5811 64.8947 0.876767 -23.4762 0.182181 -46.8264 -3.70463 4.50672 -0.321571 11.4286 2.67326 -0.0 0.0 -0.0 12.4997 25.5055 -24.5809 -9.38835 28.2201 -64.8192 1.51097 36.8121 -0.502837 39.8118 0.339507 4.97345 2.62803 4.80433 -15.8763 0.0 0.0 0.0 -2.68744 31.5152 -4.30279 -18.3612 0.311543 2.78841 16.916 6.5843 -2.34156 -16.1657 0.0 0.0 -0.0 0.0 -0.0 3.3243 33.5655 -3.39052 -22.8362 -0.251182 -3.47225 14.3261 -9.15341 2.00475 -6.79969 0.0 0.0 0.0 0.0 0.0 
2458.25407957 772.153 -1497.13525489 10.9157625056 65.8591327394 -15.1229775062 -1.46869 0.730362 4.38773 -1.45809 0.44996 4.42521 -1.41334 -0.599785 4.40744 -1.44042 0.103102 4.44679 -3.10097 17.3074 -6.87459 -2.18071 36.7793 -4.85854 -0.0 0.0 -0.0 -0.708954 12.9903 0.361561 -24.4733 -12.8325 65.4612 0.880455 -23.5642 0.183653 -46.5822 -3.67679 4.49232 -0.194759 11.3035 3.42828 -0.0 0.0 -0.0 12.5033 25.6327 -24.575 -9.32929 28.35 -64.6478 1.51388 36.8649 -0.504578 39.9353 0.345903 4.9879 2.57951 5.28508 -15.3326 0.0 0.0 0.0 -3.12256 31.4726 -4.06873 -17.5544 0.316733 2.66475 17.8801 7.03969 -2.46457 -16.4158 0.0 0.0 -0.0 0.0 -0.0 5.25236 33.8102 -4.819 -22.0843 -0.265057 -3.3577 13.3505 -9.72094 1.87584 -6.46285 0.0 0.0 0.0 0.0 0.0 
2458.72876703 772.376 -1498.98030404 10.170456779 63.8432717931 -13.673921358 -1.50032 0.733972 4.36596 -1.48984 0.454944 4.40372 -1.44485 -0.592292 4.38739 -1.47169 0.107344 4.42581 -2.71076 17.1818 -6.66125 -1.75546 36.3505 -4.78735 -0.0 0.0 -0.0 -0.669753 13.1095 0.442159 -24.5167 -12.8865 66.0407 0.847721 -22.7791 0.170773 -46.5758 -3.67606 4.49194 -0.0605312 11.2297 4.25333 -0.0 0.0 -0.0 12.5143 25.7125 -24.5912 -10.1026 28.3188 -64.5034 1.49816 36.5784 -0.495182 40.2358 0.361585 5.02299 2.45463 5.54768 -14.3497 0.0 0.0 0.0 -3.41927 31.4138 -3.91149 -16.985 0.319348 2.57742 17.4232 7.43303 -2.40632 -17.0156 0.0 0.0 -0.0 0.0 -0.0 5.57187 34.0306 -5.01129 -23.5044 -0.237594 -3.57388 12.619 -9.64041 1.77783 -5.79507 0.0 0.0 0.0 0.0 0.0 
2456.45511046 766.354 -1495.74630955 9.53000295498 62.9623238823 -12.9295156812 -1.38259 0.578967 4.33842 -1.37217 0.301998 4.3664 -1.34002 -0.724683 4.31651 -1.36601 -0.0345558 4.37667 -2.44894 17.0787 -6.50033 -1.47562 36.0133 -4.71908 -0.0 0.0 -0.0 -0.594324 12.2674 0.456582 -23.3108 -13.2011 65.7814 0.846948 -22.7604 0.170473 -46.5591 -3.67416 4.49095 0.031284 11.1447 4.80481 -0.0 0.0 -0.0 12.4948 25.8194 -24.5343 -10.8714 28.2333 -63.9236 1.46636 35.9922 -0.476364 40.4356 0.372114 5.04627 2.36577 5.72413 -13.6571 0.0 0.0 0.0 -3.91265 31.4243 -3.68246 -16.5847 0.320667 2.51601 17.1037 7.72726 -2.36547 -17.4831 0.0 0.0 -0.0 0.0 -0.0 6.20125 34.5739 -4.65196 -24.3889 -0.217783 -3.70816 12.1127 -9.5798 1.70963 -5.32445 0.0 0.0 0.0 0.0 0.0 
2449.49261732 774.71 -1497.39495513 7.40837623584 63.1835073628 -11.4844921947 -1.46381 0.431325 4.31233 -1.45348 0.156309 4.33099 -1.43285 -0.865356 4.24669 -1.45796 -0.184468 4.32989 -3.56278 17.2944 -5.17034 -2.8736 35.5205 -2.85803 -0.0 0.0 -0.0 -0.557151 12.3524 0.529711 -21.6929 -13.723 65.3036 0.830976 -22.3739 0.164344 -49.183 -3.97634 4.63949 -0.366945 11.3875 2.36787 -0.0 0.0 -0.0 12.7122 25.8682 -25.0287 -12.6104 28.0106 -63.4392 1.33068 33.3904 -0.399119 40.256 0.362647 5.02535 2.12238 5.19472 -12.1975 0.0 0.0 0.0 -3.75494 32.2103 -2.87921 -16.6482 0.320486 2.52576 9.15884 6.76641 -1.30586 -16.4356 0.0 0.0 -0.0 0.0 -0.0 5.9919 33.5572 -3.43669 -23.8619 -0.229835 -3.6282 9.75965 -4.70677 1.39055 -4.60673 0.0 0.0 0.0 0.0 0.0 
2449.69942098 762.717 -1503.34228689 5.27486676805 63.138871934 -9.51790027836 -1.34379 0.382593 4.09606 -1.33446 0.1214 4.11207 -1.31815 -0.839722 4.02738 -1.34073 -0.193696 4.1093 -3.83018 17.3432 -4.73189 -3.2132 35.312 -2.29097 -0.0 0.0 -0.0 -0.621578 11.5998 0.323283 -19.2646 -14.4846 63.7566 0.858175 -23.0309 0.174841 -50.8262 -4.16892 4.72542 -0.653995 11.8281 0.732738 -0.0 0.0 -0.0 13.2055 25.7129 -26.1863 -13.0601 27.9285 -62.3507 1.09427 28.4601 -0.277512 41.2651 0.416697 5.14255 2.28971 4.13345 -13.8003 0.0 0.0 0.0 -3.90267 32.9296 -2.53106 -15.8748 0.321951 2.4071 7.64737 6.68154 -1.09585 -15.9146 0.0 0.0 -0.0 0.0 -0.0 5.7077 33.7947 -2.45201 -21.9247 -0.267807 -3.33337 10.2463 -1.20697 1.46505 -4.08206 0.0 0.0 0.0 0.0 0.0 
